<?xml version="1.0" encoding="utf-8"?>
<!-- Generator: Adobe Illustrator 24.0.2, SVG Export Plug-In . SVG Version: 6.00 Build 0)  -->
<svg version="1.1" id="Layer_1" xmlns="http://www.w3.org/2000/svg" xmlns:xlink="http://www.w3.org/1999/xlink" x="0px" y="0px"
	 viewBox="0 0 99.2 99.2" style="enable-background:new 0 0 99.2 99.2;" xml:space="preserve">
<style type="text/css">
	.st0{fill:#30465C;}
	.st1{fill:none;stroke:#000000;stroke-miterlimit:10;}
	.st2{fill:#020203;}
</style>
<g>
	<g>
		<g>
			<path class="st0" d="M33.6,43.6c-5.3,0-9.5-4.3-9.5-9.5c0-5.3,4.3-9.5,9.5-9.5s9.5,4.3,9.5,9.5C43.1,39.3,38.8,43.6,33.6,43.6z
				 M33.6,26.2c-4.3,0-7.9,3.5-7.9,7.9c0,4.3,3.5,7.9,7.9,7.9c4.3,0,7.9-3.5,7.9-7.9C41.4,29.8,37.9,26.2,33.6,26.2z"/>
		</g>
		<circle class="st0" cx="20.4" cy="26.7" r="3.9"/>
		<circle class="st0" cx="33.6" cy="19.3" r="3.9"/>
		<circle class="st0" cx="47.6" cy="26.7" r="3.9"/>
		<circle class="st0" cx="47.6" cy="42.1" r="3.9"/>
		<circle class="st0" cx="33.6" cy="49.9" r="3.9"/>
		<circle class="st0" cx="20.4" cy="42.1" r="3.9"/>
	</g>
	<g>
		<g>
			<path class="st0" d="M64.7,73.6c-5.3,0-9.5-4.3-9.5-9.5c0-5.3,4.3-9.5,9.5-9.5s9.5,4.3,9.5,9.5C74.3,69.4,70,73.6,64.7,73.6z
				 M64.7,56.2c-4.3,0-7.9,3.5-7.9,7.9c0,4.3,3.5,7.9,7.9,7.9c4.3,0,7.9-3.5,7.9-7.9C72.6,59.8,69.1,56.2,64.7,56.2z"/>
		</g>
		<circle class="st0" cx="51.6" cy="56.7" r="3.9"/>
		<circle class="st0" cx="64.7" cy="49.3" r="3.9"/>
		<circle class="st0" cx="78.8" cy="56.7" r="3.9"/>
		<circle class="st0" cx="78.8" cy="72.1" r="3.9"/>
		<circle class="st0" cx="64.7" cy="79.9" r="3.9"/>
		<circle class="st0" cx="51.6" cy="72.1" r="3.9"/>
	</g>
</g>
</svg>
