<?xml version="1.0" encoding="utf-8"?>
<!-- Generator: Adobe Illustrator 24.0.2, SVG Export Plug-In . SVG Version: 6.00 Build 0)  -->
<svg version="1.1" id="Layer_1" xmlns="http://www.w3.org/2000/svg" xmlns:xlink="http://www.w3.org/1999/xlink" x="0px" y="0px"
	 viewBox="0 0 99.2 99.2" style="enable-background:new 0 0 99.2 99.2;" xml:space="preserve">
<style type="text/css">
	.st0{fill:#30465C;}
	.st1{fill:none;stroke:#000000;stroke-miterlimit:10;}
	.st2{fill:#020203;}
</style>
<g>
	<g>
		<g>
			<g>
				<g>
					<circle class="st0" cx="28.4" cy="48.3" r="3.9"/>
					<circle class="st0" cx="40.4" cy="48.3" r="3.9"/>
				</g>
				<g>
					<path class="st0" d="M47.7,42.7H21.1V30.4h26.6V42.7z M22.8,41h23.3v-9H22.8V41z"/>
				</g>
			</g>
			<g>
				<g>
					<circle class="st0" cx="58.8" cy="48.3" r="3.9"/>
					<circle class="st0" cx="70.8" cy="48.3" r="3.9"/>
				</g>
				<g>
					<path class="st0" d="M78.1,42.7H51.5V30.4h26.6V42.7z M53.1,41h23.3v-9H53.1V41z"/>
				</g>
			</g>
		</g>
		<g>
			<g>
				<g>
					<circle class="st0" cx="28.4" cy="77.6" r="3.9"/>
					<circle class="st0" cx="40.4" cy="77.6" r="3.9"/>
				</g>
				<g>
					<path class="st0" d="M47.7,72H21.1V59.7h26.6V72z M22.8,70.4h23.3v-9H22.8V70.4z"/>
				</g>
			</g>
			<g>
				<g>
					<circle class="st0" cx="58.8" cy="77.6" r="3.9"/>
					<circle class="st0" cx="70.8" cy="77.6" r="3.9"/>
				</g>
				<g>
					<path class="st0" d="M78.1,72H51.5V59.7h26.6V72z M53.1,70.4h23.3v-9H53.1V70.4z"/>
				</g>
			</g>
		</g>
	</g>
	<circle class="st0" cx="49.6" cy="21.6" r="3.9"/>
</g>
</svg>
