<?xml version="1.0" encoding="utf-8"?>
<!-- Generator: Adobe Illustrator 24.0.2, SVG Export Plug-In . SVG Version: 6.00 Build 0)  -->
<svg version="1.1" id="Layer_1" xmlns="http://www.w3.org/2000/svg" xmlns:xlink="http://www.w3.org/1999/xlink" x="0px" y="0px"
	 viewBox="0 0 99.2 99.2" style="enable-background:new 0 0 99.2 99.2;" xml:space="preserve">
<style type="text/css">
	.st0{fill:#30465C;}
	.st1{fill:none;stroke:#000000;stroke-miterlimit:10;}
	.st2{fill:#020203;}
</style>
<g>
	<g>
		<g>
			<path class="st0" d="M34.7,80.3c-3,0-5.4-2.4-5.4-5.4c0-3,2.4-5.4,5.4-5.4c3,0,5.4,2.4,5.4,5.4C40.1,77.8,37.7,80.3,34.7,80.3z
				 M34.7,70.4c-2.4,0-4.4,2-4.4,4.4c0,2.4,2,4.4,4.4,4.4c2.4,0,4.4-2,4.4-4.4C39.2,72.4,37.2,70.4,34.7,70.4z"/>
		</g>
		<circle class="st0" cx="23" cy="76.3" r="3.9"/>
		<circle class="st0" cx="34.7" cy="63.5" r="3.9"/>
		<circle class="st0" cx="46.1" cy="76.7" r="3.9"/>
	</g>
	<g>
		<g>
			<path class="st0" d="M59.5,57.3c0-3,2.4-5.4,5.4-5.4c3,0,5.4,2.4,5.4,5.4c0,3-2.4,5.4-5.4,5.4C61.9,62.7,59.5,60.3,59.5,57.3z
				 M69.3,57.4c0-2.4-2-4.5-4.4-4.5c-2.4,0-4.5,2-4.5,4.4c0,2.4,2,4.5,4.4,4.5C67.3,61.8,69.3,59.8,69.3,57.4z"/>
		</g>
		<circle class="st0" cx="63.5" cy="45.6" r="3.9"/>
		<circle class="st0" cx="76.2" cy="57.4" r="3.9"/>
		<circle class="st0" cx="63" cy="68.7" r="3.9"/>
	</g>
	<g>
		<g>
			<path class="st0" d="M27.3,34.3c0-3,2.4-5.4,5.4-5.4c3,0,5.4,2.4,5.4,5.4c0,3-2.4,5.4-5.4,5.4C29.7,39.7,27.3,37.2,27.3,34.3z
				 M37.1,34.3c0-2.4-2-4.5-4.4-4.5c-2.4,0-4.5,2-4.5,4.4c0,2.4,2,4.5,4.4,4.5C35.1,38.8,37.1,36.8,37.1,34.3z"/>
		</g>
		<circle class="st0" cx="31.3" cy="22.6" r="3.9"/>
		<circle class="st0" cx="44" cy="34.4" r="3.9"/>
		<circle class="st0" cx="30.8" cy="45.6" r="3.9"/>
	</g>
</g>
</svg>
