<?xml version="1.0" encoding="utf-8"?>
<!-- Generator: Adobe Illustrator 24.0.2, SVG Export Plug-In . SVG Version: 6.00 Build 0)  -->
<svg version="1.1" id="Layer_1" xmlns="http://www.w3.org/2000/svg" xmlns:xlink="http://www.w3.org/1999/xlink" x="0px" y="0px"
	 viewBox="0 0 99.2 99.2" style="enable-background:new 0 0 99.2 99.2;" xml:space="preserve">
<style type="text/css">
	.st0{fill:#30465C;}
	.st1{fill:none;stroke:#000000;stroke-miterlimit:10;}
	.st2{fill:#020203;}
</style>
<g>
	<circle class="st0" cx="49.6" cy="48.9" r="14.1"/>
	<g>
		<g>
			<rect x="49.2" y="18" class="st0" width="0.9" height="12.3"/>
		</g>
		<g>
			<rect x="49.2" y="69" class="st0" width="0.9" height="12.3"/>
		</g>
	</g>
	<g>
		<g>
			<rect x="69" y="49.2" class="st0" width="12.3" height="0.9"/>
		</g>
		<g>
			<rect x="18" y="49.2" class="st0" width="12.3" height="0.9"/>
		</g>
	</g>
	<g>
		<g>
			
				<rect x="67.2" y="61.5" transform="matrix(0.7071 -0.7071 0.7071 0.7071 -28.0113 67.6253)" class="st0" width="0.9" height="12.3"/>
		</g>
		<g>
			
				<rect x="31.1" y="25.4" transform="matrix(0.7071 -0.7071 0.7071 0.7071 -13.0839 31.5873)" class="st0" width="0.9" height="12.3"/>
		</g>
	</g>
	<g>
		<g>
			
				<rect x="25.4" y="67.2" transform="matrix(0.7071 -0.7071 0.7071 0.7071 -38.5666 42.1426)" class="st0" width="12.3" height="0.9"/>
		</g>
		<g>
			
				<rect x="61.5" y="31.1" transform="matrix(0.7071 -0.7071 0.7071 0.7071 -2.5286 57.07)" class="st0" width="12.3" height="0.9"/>
		</g>
	</g>
</g>
</svg>
