<?xml version="1.0"?>
<svg xmlns="http://www.w3.org/2000/svg" height="512px" viewBox="1 -7 487.99994 487" width="512px" class=""><g><path d="m301.839844 247.710938c45.675781-27.273438 103.996094-20.355469 142.023437 16.847656 38.03125 37.203125 46.226563 95.355468 19.960938 141.621094-26.261719 46.265624-80.398438 69.03125-131.832031 55.445312-51.4375-13.585938-87.269532-60.113281-87.261719-113.316406-.144531-41.285156 21.585937-79.5625 57.109375-100.597656zm88.898437 129.46875c18.246094-18.242188 21.0625-46.832032 6.726563-68.285157-14.332032-21.453125-41.824219-29.792969-65.660156-19.917969-23.835938 9.875-37.378907 35.210938-32.347657 60.515626 5.035157 25.304687 27.242188 43.527343 53.042969 43.527343 14.347656.019531 28.109375-5.679687 38.238281-15.839843zm0 0" fill="#e48e66" data-original="#E48E66" class="active-path" style="fill:#F2B2BF" data-old_color="#e48e66"/><path d="m390.738281 377.179688c-18.242187 18.242187-46.832031 21.058593-68.285156 6.726562-21.449219-14.335938-29.789063-41.828125-19.917969-65.664062 9.875-23.835938 35.210938-37.378907 60.515625-32.34375 25.304688 5.035156 43.53125 27.242187 43.527344 53.042968.023437 14.347656-5.675781 28.109375-15.839844 38.238282zm0 0" fill="#f8ec7d" data-original="#F8EC7D" class="" style="fill:#F95665" data-old_color="#f8ec7d"/><path d="m281.378906 116.589844h20.460938v131.121094c-53.238282 31.789062-72.5 99.550781-43.941406 154.589843h-65.296876v-285.710937zm0 0" fill="#f8ec7d" data-original="#F8EC7D" class="" style="fill:#F95665" data-old_color="#f8ec7d"/><path d="m222.621094 80.121094h58.757812v36.46875h-58.757812zm0 0" fill="#e48e66" data-original="#E48E66" class="active-path" style="fill:#F2B2BF" data-old_color="#e48e66"/><path d="m99.730469 329.191406h-35.652344v73.109375h-55.078125v-330.371093h183.601562v330.371093h-55.082031v-73.109375zm0 0" fill="#f8ec7d" data-original="#F8EC7D" class="" style="fill:#F95665" data-old_color="#f8ec7d"/><path d="m41.128906 34.960938h119.339844v36.96875h-119.339844zm0 0" fill="#e48e66" data-original="#E48E66" class="active-path" style="fill:#F2B2BF" data-old_color="#e48e66"/><path d="m137.519531 401.691406v.609375h-37.789062v-73.109375h37.789062zm0 0" fill="#e48e66" data-original="#E48E66" class="active-path" style="fill:#F2B2BF" data-old_color="#e48e66"/><path d="m99.730469 329.191406v73.109375h-35.652344v-73.109375zm0 0" fill="#e48e66" data-original="#E48E66" class="active-path" style="fill:#F2B2BF" data-old_color="#e48e66"/><g fill="#63316d"><path d="m361.871094 222.171875c-17.578125-.003906-34.957032 3.667969-51.03125 10.777344v-116.359375c0-4.96875-4.027344-9-9-9h-11.460938v-27.46875c0-4.972656-4.027344-9-9-9h-20.097656v-10.78125c0-4.96875-4.03125-9-9-9-4.972656 0-9 4.03125-9 9v10.78125h-20.660156c-4.972656 0-9 4.027344-9 9v27.46875h-12.019532v-35.660156c0-4.96875-4.03125-9-9-9h-23.132812v-27.96875c0-4.972657-4.027344-9-9-9h-51.738281v-16.460938c0-4.96875-4.03125-9-9-9-4.972657 0-9 4.03125-9 9v16.460938h-49.601563c-4.96875 0-9 4.027343-9 9v27.96875h-23.128906c-4.96875 0-9 4.03125-9 9v330.371093c0 4.96875 4.03125 9 9 9h243.585938c30.578124 53.039063 94.824218 76.464844 152.367187 55.550781 57.539063-20.910156 91.753906-80.125 81.136719-140.417968-10.617188-60.296875-62.996094-104.261719-124.21875-104.261719zm-311.742188-178.210937h101.339844v18.96875h-101.339844zm78.390625 349.339843h-19.789062v-55.109375h19.789062zm-37.789062 0h-17.652344v-55.109375h17.652344zm92.871093 0h-37.082031v-64.109375c0-4.972656-4.027343-9-9-9h-73.441406c-4.96875 0-9 4.027344-9 9v64.109375h-37.078125v-312.371093h165.601562zm48.019532-304.179687h40.757812v18.46875h-40.757812zm61.21875 36.46875v117.152344c-6.527344 4.277343-12.648438 9.148437-18.28125 14.554687-.867188-.269531-1.769532-.402344-2.679688-.402344h-48.867187c-4.972657 0-9 4.03125-9 9 0 4.972657 4.027343 9 9 9h36.289062c-2.371093 3.300781-4.578125 6.714844-6.625 10.242188-2.472656 4.273437-4.683593 8.683593-6.632812 13.21875h-23.03125c-4.972657 0-9 4.027343-9 9 0 4.96875 4.027343 9 9 9h16.835937c-2.285156 8.742187-3.625 17.703125-4 26.730469h-12.835937c-4.972657 0-9 4.027343-9 9 0 4.96875 4.027343 9 9 9h13.382812c1.121094 11.027343 3.6875 21.859374 7.625 32.21875h-42.417969v-267.714844zm69.03125 330.851562c-40.386719.074219-77.429688-22.421875-95.984375-58.292968v-.007813c-8.039063-15.375-12.210938-32.480469-12.152344-49.832031-.003906-59.722656 48.40625-108.136719 108.128906-108.140625 59.722657-.003907 108.140625 48.410156 108.140625 108.132812.003906 59.722657-48.410156 108.136719-108.132812 108.140625zm0 0" data-original="#63316D" class="" style="fill:#2F455C" data-old_color="#63316D"/><path d="m46.269531 175.609375h109.101563c4.96875 0 9-4.027344 9-9 0-4.96875-4.03125-9-9-9h-109.101563c-4.96875 0-9 4.03125-9 9 0 4.972656 4.03125 9 9 9zm0 0" data-original="#63316D" class="" style="fill:#2F455C" data-old_color="#63316D"/><path d="m46.269531 225.789062h109.101563c4.96875 0 9-4.027343 9-9 0-4.96875-4.03125-9-9-9h-109.101563c-4.96875 0-9 4.03125-9 9 0 4.972657 4.03125 9 9 9zm0 0" data-original="#63316D" class="" style="fill:#2F455C" data-old_color="#63316D"/><path d="m46.269531 275.980469h109.101563c4.96875 0 9-4.03125 9-9 0-4.972657-4.03125-9-9-9h-109.101563c-4.96875 0-9 4.027343-9 9 0 4.96875 4.03125 9 9 9zm0 0" data-original="#63316D" class="" style="fill:#2F455C" data-old_color="#63316D"/><path d="m46.269531 125.421875h109.101563c4.96875 0 9-4.03125 9-9 0-4.972656-4.03125-9-9-9h-109.101563c-4.96875 0-9 4.027344-9 9 0 4.96875 4.03125 9 9 9zm0 0" data-original="#63316D" class="" style="fill:#2F455C" data-old_color="#63316D"/><path d="m223.011719 230.160156h46.917969c4.972656 0 9-4.03125 9-9 0-4.972656-4.027344-9-9-9h-46.917969c-4.972657 0-9 4.027344-9 9 0 4.96875 4.027343 9 9 9zm0 0" data-original="#63316D" class="" style="fill:#2F455C" data-old_color="#63316D"/><path d="m223.011719 186.519531h46.917969c4.972656 0 9-4.027343 9-9 0-4.96875-4.027344-9-9-9h-46.917969c-4.972657 0-9 4.03125-9 9 0 4.972657 4.027343 9 9 9zm0 0" data-original="#63316D" class="" style="fill:#2F455C" data-old_color="#63316D"/><path d="m403.015625 376.726562c19.796875-26.480468 15.769531-63.757812-9.226563-85.402343-24.996093-21.640625-62.46875-20.292969-85.84375 3.089843-23.378906 23.382813-24.714843 60.855469-3.0625 85.84375 21.648438 24.992188 58.929688 29.007813 85.40625 9.199219l28.65625 28.664063c3.511719 3.515625 9.210938 3.519531 12.726563.003906s3.515625-9.210938.003906-12.726562zm-95.59375-37.785156c-.007813-20.335937 13.601563-38.160156 33.21875-43.507812 19.621094-5.351563 40.390625 3.097656 50.707031 20.621094 10.316406 17.527343 7.625 39.789062-6.574218 54.34375-.148438.132812-.300782.257812-.4375.402343-.140626.140625-.25.269531-.371094.40625-12.976563 12.664063-32.277344 16.320313-48.984375 9.277344s-27.566407-23.414063-27.558594-41.542969zm0 0" data-original="#63316D" class="" style="fill:#2F455C" data-old_color="#63316D"/></g></g> </svg>
