<svg id="Layer_1" data-name="Layer 1" xmlns="http://www.w3.org/2000/svg" viewBox="0 0 345.83 447.87"><path d="M341.68,224.47c-5.94-39-32.13-70.72-66.61-82V106.3A102.2,102.2,0,0,0,172.93,4h0A102.2,102.2,0,0,0,70.76,106.29V142.5c-34.48,11.25-60.68,43-66.61,82-5.12,33.7,4.76,70,28.57,105,28,41.09,74.1,79.32,137,113.61a10.24,10.24,0,0,0,3.17.8,5.94,5.94,0,0,0,3.14-.8c62.94-34.29,109.05-72.52,137-113.61C336.92,294.46,346.8,258.17,341.68,224.47ZM115.23,106.29c0-15.42,6-36.44,16.89-47.35a57.62,57.62,0,0,1,81.59,0c10.89,10.91,16.89,31.93,16.88,47.35v33.85c-22,4.9-42.14,18.92-57.68,40.66-15.53-21.74-35.67-35.76-57.68-40.66ZM290,310.11c-22.8,35.59-61.09,69.22-113.82,99.95a6.57,6.57,0,0,1-3.3.89h0a6.6,6.6,0,0,1-3.3-.89c-52.73-30.73-91-64.36-113.81-99.95-19-29.68-26.36-60.5-20.69-86.78,6.23-28.84,27.41-49.24,54-52,32.12-3.3,62.49,19.31,81.66,60.61.61,0,1.33.08,2.18.08s1.57,0,2.18-.08c19.17-41.3,49.53-63.9,81.67-60.61,26.55,2.72,47.73,23.12,53.95,52C316.39,249.61,309,280.43,290,310.11Z" fill="#eb5666"/><path d="M187.81,305.94a28.18,28.18,0,0,0-14.9-52.12h0a28.19,28.19,0,0,0-15,52.08l-8.5,50.77a6.58,6.58,0,0,0,6.48,7.66h0l34,0a6.57,6.57,0,0,0,6.48-7.67Z" fill="#eb5666"/></svg>