<svg xmlns="http://www.w3.org/2000/svg" viewBox="0 0 29.73 29.89"><defs><style>.cls-1{fill:#f95665;}</style></defs><g id="Layer_2" data-name="Layer 2"><g id="Layer_1-2" data-name="Layer 1"><rect class="cls-1" x="4.88" y="26.39" width="3.5" height="3.5" rx="0.32"/><rect class="cls-1" x="8.98" y="26.39" width="3.5" height="3.5" rx="0.32"/><rect class="cls-1" x="13.09" y="26.39" width="3.5" height="3.5" rx="0.32"/><rect class="cls-1" x="17.19" y="26.39" width="3.5" height="3.5" rx="0.32"/><rect class="cls-1" x="21.29" y="26.39" width="3.5" height="3.5" rx="0.32"/><rect class="cls-1" x="4.88" width="3.5" height="3.5" rx="0.32"/><rect class="cls-1" x="8.98" width="3.5" height="3.5" rx="0.32"/><rect class="cls-1" x="13.09" width="3.5" height="3.5" rx="0.32"/><rect class="cls-1" x="17.19" width="3.5" height="3.5" rx="0.32"/><rect class="cls-1" x="21.29" width="3.5" height="3.5" rx="0.32"/><rect class="cls-1" x="26.23" y="21.4" width="3.5" height="3.5" rx="0.32" transform="translate(4.83 51.14) rotate(-90)"/><rect class="cls-1" x="26.23" y="17.29" width="3.5" height="3.5" rx="0.32" transform="translate(8.94 47.03) rotate(-90)"/><rect class="cls-1" x="26.23" y="13.19" width="3.5" height="3.5" rx="0.32" transform="translate(13.05 42.92) rotate(-90)"/><rect class="cls-1" x="26.23" y="9.09" width="3.5" height="3.5" rx="0.32" transform="translate(17.14 38.83) rotate(-90)"/><rect class="cls-1" x="26.23" y="4.98" width="3.5" height="3.5" rx="0.32" transform="translate(21.25 34.72) rotate(-90)"/><rect class="cls-1" y="21.4" width="3.5" height="3.5" rx="0.32" transform="translate(-21.4 24.9) rotate(-90)"/><rect class="cls-1" y="17.29" width="3.5" height="3.5" rx="0.32" transform="translate(-17.29 20.79) rotate(-90)"/><rect class="cls-1" y="13.19" width="3.5" height="3.5" rx="0.32" transform="translate(-13.19 16.69) rotate(-90)"/><rect class="cls-1" y="9.09" width="3.5" height="3.5" rx="0.32" transform="translate(-9.09 12.59) rotate(-90)"/><rect class="cls-1" y="4.98" width="3.5" height="3.5" rx="0.32" transform="translate(-4.98 8.48) rotate(-90)"/><rect class="cls-1" x="4.72" y="4.82" width="20.24" height="1.13" rx="0.37"/><rect class="cls-1" x="4.72" y="23.94" width="20.24" height="1.13" rx="0.37"/><rect class="cls-1" x="-4.84" y="14.38" width="20.24" height="1.13" rx="0.37" transform="translate(-9.67 20.22) rotate(-90)"/><rect class="cls-1" x="14.27" y="14.38" width="20.24" height="1.13" rx="0.37" transform="translate(9.45 39.34) rotate(-90)"/></g></g></svg>