<svg xmlns="http://www.w3.org/2000/svg" viewBox="0 0 30.01 29.56"><defs><style>.cls-1{fill:#f95665;}</style></defs><g id="Layer_2" data-name="Layer 2"><g id="Layer_1-2" data-name="Layer 1"><rect class="cls-1" x="5.52" width="18.7" height="1.13" rx="0.36"/><rect class="cls-1" x="2.79" y="2.72" width="6.57" height="1.13" rx="0.26" transform="translate(2.79 9.37) rotate(-90)"/><rect class="cls-1" x="20.37" y="2.72" width="6.57" height="1.13" rx="0.26" transform="translate(20.37 26.94) rotate(-90)"/><rect class="cls-1" x="4.93" y="27.56" width="1.72" height="1.72" rx="0.15" transform="translate(-18.4 12.42) rotate(-45)"/><rect class="cls-1" x="3.39" y="26.01" width="1.72" height="1.72" rx="0.15" transform="translate(-11.75 48.87) rotate(-135)"/><rect class="cls-1" x="1.84" y="24.46" width="1.72" height="1.72" rx="0.15" transform="translate(-13.3 45.14) rotate(-135)"/><rect class="cls-1" x="0.29" y="22.92" width="1.72" height="1.72" rx="0.15" transform="translate(-14.85 41.4) rotate(-135)"/><rect class="cls-1" x="6.48" y="26.01" width="1.72" height="1.72" rx="0.15" transform="translate(-16.85 13.06) rotate(-45)"/><rect class="cls-1" x="8.02" y="24.46" width="1.72" height="1.72" rx="0.15" transform="translate(-15.31 13.7) rotate(-45)"/><rect class="cls-1" x="9.57" y="22.92" width="1.72" height="1.72" rx="0.15" transform="translate(-13.76 14.34) rotate(-45)"/><rect class="cls-1" x="2.71" y="19.15" width="6.16" height="6.16" rx="0.25" transform="translate(-14.03 10.61) rotate(-45)"/><rect class="cls-1" x="23.36" y="27.56" width="1.72" height="1.72" rx="0.15" transform="translate(-13 25.45) rotate(-45)"/><rect class="cls-1" x="21.82" y="26.01" width="1.72" height="1.72" rx="0.15" transform="translate(19.71 61.9) rotate(-135)"/><rect class="cls-1" x="20.27" y="24.46" width="1.72" height="1.72" rx="0.15" transform="translate(18.16 58.17) rotate(-135)"/><rect class="cls-1" x="18.72" y="22.92" width="1.72" height="1.72" rx="0.15" transform="translate(16.61 54.43) rotate(-135)"/><rect class="cls-1" x="24.9" y="26.01" width="1.72" height="1.72" rx="0.15" transform="translate(-11.45 26.09) rotate(-45)"/><rect class="cls-1" x="26.45" y="24.46" width="1.72" height="1.72" rx="0.15" transform="translate(-9.91 26.73) rotate(-45)"/><rect class="cls-1" x="28" y="22.92" width="1.72" height="1.72" rx="0.15" transform="translate(-8.36 27.37) rotate(-45)"/><rect class="cls-1" x="21.14" y="19.15" width="6.16" height="6.16" rx="0.25" transform="translate(-8.63 23.64) rotate(-45)"/><rect class="cls-1" x="14.01" y="20.09" width="1.72" height="1.72" rx="0.15" transform="translate(-10.46 16.65) rotate(-45)"/><rect class="cls-1" x="12.47" y="18.55" width="1.72" height="1.72" rx="0.15" transform="translate(9.02 42.55) rotate(-135)"/><rect class="cls-1" x="10.92" y="17" width="1.72" height="1.72" rx="0.15" transform="translate(7.48 38.81) rotate(-135)"/><rect class="cls-1" x="9.37" y="15.45" width="1.72" height="1.72" rx="0.15" transform="translate(5.93 35.07) rotate(-135)"/><rect class="cls-1" x="15.55" y="18.55" width="1.72" height="1.72" rx="0.15" transform="translate(-8.91 17.29) rotate(-45)"/><rect class="cls-1" x="17.1" y="17" width="1.72" height="1.72" rx="0.15" transform="translate(-7.37 17.93) rotate(-45)"/><rect class="cls-1" x="18.65" y="15.45" width="1.72" height="1.72" rx="0.15" transform="translate(-5.82 18.57) rotate(-45)"/><rect class="cls-1" x="11.79" y="11.69" width="6.16" height="6.16" rx="0.25" transform="translate(-6.09 14.84) rotate(-45)"/></g></g></svg>