<svg xmlns="http://www.w3.org/2000/svg" viewBox="0 0 29.84 29.43"><defs><style>.cls-1{fill:#f95665;}</style></defs><g id="Layer_2" data-name="Layer 2"><g id="Layer_1-2" data-name="Layer 1"><rect class="cls-1" y="25.93" width="3.5" height="3.5" rx="0.32"/><rect class="cls-1" x="4.11" y="25.93" width="3.5" height="3.5" rx="0.32"/><rect class="cls-1" y="23.94" width="11.72" height="1.39" rx="0.36"/><rect class="cls-1" x="8.22" y="25.93" width="3.5" height="3.5" rx="0.32"/><rect class="cls-1" x="18.13" y="25.93" width="3.5" height="3.5" rx="0.32"/><rect class="cls-1" x="22.24" y="25.93" width="3.5" height="3.5" rx="0.32"/><rect class="cls-1" x="18.13" y="23.94" width="11.72" height="1.39" rx="0.36"/><rect class="cls-1" x="26.34" y="25.93" width="3.5" height="3.5" rx="0.32"/><rect class="cls-1" y="18.7" width="3.5" height="3.5" rx="0.32"/><rect class="cls-1" x="4.11" y="18.7" width="3.5" height="3.5" rx="0.32"/><rect class="cls-1" y="16.71" width="11.72" height="1.39" rx="0.36"/><rect class="cls-1" x="8.22" y="18.7" width="3.5" height="3.5" rx="0.32"/><rect class="cls-1" x="18.13" y="18.7" width="3.5" height="3.5" rx="0.32"/><rect class="cls-1" x="22.24" y="18.7" width="3.5" height="3.5" rx="0.32"/><rect class="cls-1" x="18.13" y="16.71" width="11.72" height="1.39" rx="0.36"/><rect class="cls-1" x="26.34" y="18.7" width="3.5" height="3.5" rx="0.32"/><rect class="cls-1" y="11.78" width="3.5" height="3.5" rx="0.32"/><rect class="cls-1" x="4.11" y="11.78" width="3.5" height="3.5" rx="0.32"/><rect class="cls-1" y="9.79" width="11.72" height="1.39" rx="0.36"/><rect class="cls-1" x="8.22" y="11.78" width="3.5" height="3.5" rx="0.32"/><rect class="cls-1" x="18.13" y="11.78" width="3.5" height="3.5" rx="0.32"/><rect class="cls-1" x="22.24" y="11.78" width="3.5" height="3.5" rx="0.32"/><rect class="cls-1" x="18.13" y="9.79" width="11.72" height="1.39" rx="0.36"/><rect class="cls-1" x="26.34" y="11.78" width="3.5" height="3.5" rx="0.32"/><rect class="cls-1" y="5.01" width="3.5" height="3.5" rx="0.32"/><rect class="cls-1" x="4.11" y="5.01" width="3.5" height="3.5" rx="0.32"/><rect class="cls-1" y="3.02" width="11.72" height="1.39" rx="0.36"/><rect class="cls-1" x="8.22" y="5.01" width="3.5" height="3.5" rx="0.32"/><rect class="cls-1" x="18.13" y="5.01" width="3.5" height="3.5" rx="0.32"/><rect class="cls-1" x="22.24" y="5.01" width="3.5" height="3.5" rx="0.32"/><rect class="cls-1" x="18.13" y="3.02" width="11.72" height="1.39" rx="0.36"/><rect class="cls-1" x="26.34" y="5.01" width="3.5" height="3.5" rx="0.32"/><rect class="cls-1" x="4.08" width="21.78" height="1.13" rx="0.38"/></g></g></svg>