<svg xmlns="http://www.w3.org/2000/svg" viewBox="0 0 26.96 26.96"><defs><style>.cls-1{fill:#f95665;}</style></defs><g id="Layer_2" data-name="Layer 2"><g id="Layer_1-2" data-name="Layer 1"><path class="cls-1" d="M7.43,13.72a.39.39,0,0,1,0-.53l.41-.41H.48a.48.48,0,0,0-.48.48v.44a.47.47,0,0,0,.48.48H7.89Z"/><path class="cls-1" d="M13.29,7.33a.39.39,0,0,1,.53,0l.36.36V.48A.47.47,0,0,0,13.7,0h-.44a.48.48,0,0,0-.48.48V7.84Z"/><path class="cls-1" d="M17.22,10.73l6-5.95a.46.46,0,0,0,0-.67l-.31-.32a.48.48,0,0,0-.67,0l-6,6Z"/><path class="cls-1" d="M9.82,10.8l1-1-6-6a.48.48,0,0,0-.67,0l-.32.32a.48.48,0,0,0,0,.67Z"/><path class="cls-1" d="M17.19,16.2l-1,1,6,6a.46.46,0,0,0,.67,0l.31-.31a.46.46,0,0,0,0-.67Z"/><path class="cls-1" d="M26.49,12.78H19.27l.41.41a.39.39,0,0,1,0,.53l-.47.46h7.28A.47.47,0,0,0,27,13.7v-.44A.48.48,0,0,0,26.49,12.78Z"/><path class="cls-1" d="M13.82,19.58a.39.39,0,0,1-.53,0l-.51-.51v7.42a.48.48,0,0,0,.48.47h.44a.47.47,0,0,0,.48-.47V19.21Z"/><path class="cls-1" d="M9.85,16.13,3.79,22.19a.48.48,0,0,0,0,.67l.32.31a.46.46,0,0,0,.67,0l6.05-6.05Z"/><rect class="cls-1" x="10.03" y="9.89" width="7.04" height="7.04" rx="0.29" transform="translate(-5.51 13.51) rotate(-45)"/></g></g></svg>