<svg xmlns="http://www.w3.org/2000/svg" viewBox="0 0 29.65 30.2"><defs><style>.cls-1{fill:#f95665;}</style></defs><g id="Layer_2" data-name="Layer 2"><g id="Layer_1-2" data-name="Layer 1"><rect class="cls-1" x="0.34" y="28.22" width="1.64" height="1.64" rx="0.15" transform="translate(-18.56 50.4) rotate(-135)"/><rect class="cls-1" x="6.56" y="22.05" width="1.64" height="1.64" rx="0.15" transform="translate(-3.58 44.25) rotate(-135)"/><rect class="cls-1" x="6.52" y="28.22" width="1.64" height="1.64" rx="0.15" transform="translate(-18.39 13.7) rotate(-45)"/><rect class="cls-1" x="0.33" y="22.03" width="1.64" height="1.64" rx="0.15" transform="translate(-15.82 7.5) rotate(-45)"/><rect class="cls-1" x="1.17" y="22.87" width="6.16" height="6.16" rx="0.25" transform="translate(-17.11 10.61) rotate(-45)"/><rect class="cls-1" x="21.49" y="28.22" width="1.64" height="1.64" rx="0.15" transform="translate(17.55 65.35) rotate(-135)"/><rect class="cls-1" x="27.71" y="22.05" width="1.64" height="1.64" rx="0.15" transform="translate(32.53 59.21) rotate(-135)"/><rect class="cls-1" x="27.67" y="28.22" width="1.64" height="1.64" rx="0.15" transform="translate(-12.19 28.65) rotate(-45)"/><rect class="cls-1" x="21.48" y="22.03" width="1.64" height="1.64" rx="0.15" transform="translate(-9.63 22.46) rotate(-45)"/><rect class="cls-1" x="22.32" y="22.87" width="6.16" height="6.16" rx="0.25" transform="translate(-10.91 25.56) rotate(-45)"/><rect class="cls-1" x="0.34" y="7.24" width="1.64" height="1.64" rx="0.15" transform="translate(-3.73 14.59) rotate(-135)"/><rect class="cls-1" x="6.56" y="1.07" width="1.64" height="1.64" rx="0.15" transform="translate(11.26 8.45) rotate(-135)"/><rect class="cls-1" x="6.52" y="7.24" width="1.64" height="1.64" rx="0.15" transform="translate(-3.55 7.55) rotate(-45)"/><rect class="cls-1" x="0.33" y="1.05" width="1.64" height="1.64" rx="0.15" transform="translate(-0.99 1.36) rotate(-45)"/><rect class="cls-1" x="1.17" y="1.9" width="6.16" height="6.16" rx="0.25" transform="translate(-2.27 4.46) rotate(-45)"/><rect class="cls-1" x="21.49" y="6.52" width="1.64" height="1.64" rx="0.15" transform="translate(32.89 28.3) rotate(-135)"/><rect class="cls-1" x="27.71" y="0.34" width="1.64" height="1.64" rx="0.15" transform="translate(47.87 22.16) rotate(-135)"/><rect class="cls-1" x="27.67" y="6.52" width="1.64" height="1.64" rx="0.15" transform="translate(3.15 22.29) rotate(-45)"/><rect class="cls-1" x="21.48" y="0.33" width="1.64" height="1.64" rx="0.15" transform="translate(5.72 16.1) rotate(-45)"/><rect class="cls-1" x="22.32" y="1.17" width="6.16" height="6.16" rx="0.25" transform="translate(4.43 19.2) rotate(-45)"/><rect class="cls-1" x="9.99" y="17.78" width="1.88" height="1.88" rx="0.17" transform="translate(5.42 39.68) rotate(-135)"/><rect class="cls-1" x="7.9" y="15.69" width="1.88" height="1.88" rx="0.17" transform="translate(3.33 34.64) rotate(-135)"/><rect class="cls-1" x="7.9" y="12.78" width="1.88" height="1.88" rx="0.17" transform="translate(5.38 29.67) rotate(-135)"/><rect class="cls-1" x="6.49" y="14.25" width="1.88" height="1.88" rx="0.17" transform="translate(1.94 31.18) rotate(-135)"/><rect class="cls-1" x="19.15" y="15.69" width="1.88" height="1.88" rx="0.17" transform="translate(-5.88 19.07) rotate(-45)"/><rect class="cls-1" x="19.15" y="12.78" width="1.88" height="1.88" rx="0.17" transform="translate(-3.82 18.22) rotate(-45)"/><rect class="cls-1" x="20.55" y="14.25" width="1.88" height="1.88" rx="0.17" transform="translate(-4.44 19.65) rotate(-45)"/><rect class="cls-1" x="17.1" y="10.72" width="1.88" height="1.88" rx="0.17" transform="translate(22.55 32.66) rotate(-135)"/><rect class="cls-1" x="17.05" y="17.78" width="1.88" height="1.88" rx="0.17" transform="translate(-7.97 18.21) rotate(-45)"/><rect class="cls-1" x="9.98" y="10.7" width="1.88" height="1.88" rx="0.17" transform="translate(-5.03 11.13) rotate(-45)"/><rect class="cls-1" x="10.94" y="11.67" width="7.04" height="7.04" rx="0.29" transform="translate(-6.5 14.67) rotate(-45)"/></g></g></svg>