<svg xmlns="http://www.w3.org/2000/svg" viewBox="0 0 27.08 27.05"><defs><style>.cls-1{fill:#f95665;}</style></defs><g id="Layer_2" data-name="Layer 2"><g id="Layer_1-2" data-name="Layer 1"><path class="cls-1" d="M26.93,0H22.87c-.26,0-.28.13-.28.33,0,.83,0,1.65,0,2.48v1.7h-.48c-1.2,0-2.41,0-3.61,0-.35,0-.47.11-.43.44a2.28,2.28,0,0,1,0,.37V9h-4c-.54,0-.54,0-.54.55v3.95H9.45c-.3,0-.4.09-.39.39,0,1.22,0,2.44,0,3.66V18H8.58c-1.17,0-2.33,0-3.5,0-.39,0-.54.07-.52.5,0,1.18,0,2.36,0,3.54v.46H.5c-.33,0-.44.08-.44.42,0,1,0,2,0,3v1.09H24.68a2.22,2.22,0,0,0,2.4-2.4V.05A.85.85,0,0,0,26.93,0ZM26,16.17,18.22,24h3.57v1.87H14.33V18.36h1.94v3.77L26,12.35Z"/><path class="cls-1" d="M4.22,0V1.87H7.8C5.18,4.48,2.57,7.09,0,9.67v3.82l9.75-9.8V7.46h1.94V0Z"/></g></g></svg>