<svg xmlns="http://www.w3.org/2000/svg" viewBox="0 0 29.72 29.43"><defs><style>.cls-1{fill:#f95665;}</style></defs><g id="Layer_2" data-name="Layer 2"><g id="Layer_1-2" data-name="Layer 1"><rect class="cls-1" x="3.99" width="21.78" height="1.13" rx="0.38"/><rect class="cls-1" x="18" y="25.93" width="3.5" height="3.5" rx="0.32"/><rect class="cls-1" x="22.11" y="25.93" width="3.5" height="3.5" rx="0.32"/><rect class="cls-1" x="26.22" y="25.93" width="3.5" height="3.5" rx="0.32"/><rect class="cls-1" x="18" y="21.39" width="3.5" height="3.5" rx="0.32"/><rect class="cls-1" x="22.11" y="21.39" width="3.5" height="3.5" rx="0.32"/><rect class="cls-1" x="26.22" y="21.39" width="3.5" height="3.5" rx="0.32"/><rect class="cls-1" x="18" y="16.86" width="3.5" height="3.5" rx="0.32"/><rect class="cls-1" x="22.11" y="16.86" width="3.5" height="3.5" rx="0.32"/><rect class="cls-1" x="26.22" y="16.86" width="3.5" height="3.5" rx="0.32"/><rect class="cls-1" x="18" y="12.32" width="3.5" height="3.5" rx="0.32"/><rect class="cls-1" x="22.11" y="12.32" width="3.5" height="3.5" rx="0.32"/><rect class="cls-1" x="26.22" y="12.32" width="3.5" height="3.5" rx="0.32"/><rect class="cls-1" x="18" y="7.78" width="3.5" height="3.5" rx="0.32"/><rect class="cls-1" x="22.11" y="7.78" width="3.5" height="3.5" rx="0.32"/><rect class="cls-1" x="26.22" y="7.78" width="3.5" height="3.5" rx="0.32"/><rect class="cls-1" x="18" y="3.24" width="3.5" height="3.5" rx="0.32"/><rect class="cls-1" x="22.11" y="3.24" width="3.5" height="3.5" rx="0.32"/><rect class="cls-1" x="26.22" y="3.24" width="3.5" height="3.5" rx="0.32"/><rect class="cls-1" y="25.93" width="3.5" height="3.5" rx="0.32"/><rect class="cls-1" x="4.11" y="25.93" width="3.5" height="3.5" rx="0.32"/><rect class="cls-1" x="8.22" y="25.93" width="3.5" height="3.5" rx="0.32"/><rect class="cls-1" y="21.39" width="3.5" height="3.5" rx="0.32"/><rect class="cls-1" x="4.11" y="21.39" width="3.5" height="3.5" rx="0.32"/><rect class="cls-1" x="8.22" y="21.39" width="3.5" height="3.5" rx="0.32"/><rect class="cls-1" y="16.86" width="3.5" height="3.5" rx="0.32"/><rect class="cls-1" x="4.11" y="16.86" width="3.5" height="3.5" rx="0.32"/><rect class="cls-1" x="8.22" y="16.86" width="3.5" height="3.5" rx="0.32"/><rect class="cls-1" y="12.32" width="3.5" height="3.5" rx="0.32"/><rect class="cls-1" x="4.11" y="12.32" width="3.5" height="3.5" rx="0.32"/><rect class="cls-1" x="8.22" y="12.32" width="3.5" height="3.5" rx="0.32"/><rect class="cls-1" y="7.78" width="3.5" height="3.5" rx="0.32"/><rect class="cls-1" x="4.11" y="7.78" width="3.5" height="3.5" rx="0.32"/><rect class="cls-1" x="8.22" y="7.78" width="3.5" height="3.5" rx="0.32"/><rect class="cls-1" y="3.24" width="3.5" height="3.5" rx="0.32"/><rect class="cls-1" x="4.11" y="3.24" width="3.5" height="3.5" rx="0.32"/><rect class="cls-1" x="8.22" y="3.24" width="3.5" height="3.5" rx="0.32"/></g></g></svg>