<svg id="Layer_1" data-name="Layer 1" xmlns="http://www.w3.org/2000/svg" viewBox="0 0 728.19 312"><defs><style>.cls-1{fill:#eb5666;}</style></defs><title>Hotels Story Logo</title><path class="cls-1" d="M169.3,196.65c-4.69-7.53-13.07-10.88-21.61-10.88-12.4,0-25.29,5.86-25.29,19.93,0,10.89,6,15.74,25,21.77,18.42,5.87,35.51,11.9,35.51,35.18,0,23.62-20.27,34.67-41.71,34.67-13.74,0-28.48-4.52-36.52-16.41L116.7,271c5,8.71,15.08,13.24,25.3,13.24,12.06,0,25.79-7,25.79-20.61,0-14.57-9.88-17.08-31-24.11-16.75-5.53-29.48-12.9-29.48-32.67,0-22.78,19.6-34.17,40.37-34.17,13.23,0,24.46,3.69,33.17,13.9Z"/><path class="cls-1" d="M285.72,188.78h-39.2V294.31H232.45V188.78H193.26V175.72h92.46Z"/><path class="cls-1" d="M429.41,175.72h30.32c22.95,0,47.24,3.34,47.24,32.66,0,17.25-11.23,28.47-29.65,31.32L511,294.31H493.74L461.57,241H443.48v53.27H429.41ZM443.48,228h12.57c15.57,0,35.84,0,35.84-19.6,0-17.09-14.91-19.6-28.64-19.6H443.48Z"/><path class="cls-1" d="M553.54,243.22l-44.22-67.5h17.92l33.33,53.6,34.34-53.6h16.92l-44.22,67.5v51.09H553.54Z"/><path class="cls-1" d="M47.1,17.79H73.24V62H124V17.79h26.13v118.6H124V85.13H73.24v51.26H47.1Z"/><path class="cls-1" d="M172.65,51.29A56.56,56.56,0,0,1,186,31.61a58.64,58.64,0,0,1,20.27-12.48,77.68,77.68,0,0,1,51.26,0,58.82,58.82,0,0,1,20.27,12.48,56.67,56.67,0,0,1,13.31,19.68,66.89,66.89,0,0,1,4.78,25.8,66.89,66.89,0,0,1-4.78,25.8,56.67,56.67,0,0,1-13.31,19.68,58.82,58.82,0,0,1-20.27,12.48,77.68,77.68,0,0,1-51.26,0A58.64,58.64,0,0,1,186,122.57a56.56,56.56,0,0,1-13.32-19.68,67.07,67.07,0,0,1-4.77-25.8A67.07,67.07,0,0,1,172.65,51.29Zm25,41.13a35,35,0,0,0,7.46,12.06,33.84,33.84,0,0,0,11.64,8,41.88,41.88,0,0,0,30.32,0,34,34,0,0,0,11.64-8,35.14,35.14,0,0,0,7.45-12.06,43.53,43.53,0,0,0,2.6-15.33,43.76,43.76,0,0,0-2.6-15.25,34.92,34.92,0,0,0-7.45-12.14,34,34,0,0,0-11.64-8,41.88,41.88,0,0,0-30.32,0,33.84,33.84,0,0,0-11.64,8,34.8,34.8,0,0,0-7.46,12.14A43.76,43.76,0,0,0,195,77.09,43.53,43.53,0,0,0,197.61,92.42Z"/><path class="cls-1" d="M410.77,17.79h80.57V41.91H436.9v22h51.43V88H436.9v24.29h57.46v24.12H410.77Z"/><path class="cls-1" d="M516.3,17.79h26.13v94.48h48.41v24.12H516.3Z"/><path class="cls-1" d="M663.87,46.77a18.63,18.63,0,0,0-8.62-6A31,31,0,0,0,645,38.9a26.84,26.84,0,0,0-5.87.67,22.05,22.05,0,0,0-5.69,2.09A12.48,12.48,0,0,0,629,45.43a9.52,9.52,0,0,0-1.67,5.69,9.43,9.43,0,0,0,4,8.21,37.93,37.93,0,0,0,10.13,4.86q6.12,2,13.15,4a54.14,54.14,0,0,1,13.15,5.7,30.92,30.92,0,0,1,10.13,9.88q4,6.19,4,16.58a38.13,38.13,0,0,1-3.69,17.26,35,35,0,0,1-10,12.22,42.06,42.06,0,0,1-14.57,7.21,67,67,0,0,1-39-1.17,53.57,53.57,0,0,1-18.42-11.4L615,104.06a27.12,27.12,0,0,0,10.14,8.29,28.52,28.52,0,0,0,19.09,2.18,21,21,0,0,0,5.86-2.26,12.56,12.56,0,0,0,4.19-3.86,9.58,9.58,0,0,0,1.59-5.52,10,10,0,0,0-4.1-8.46,37.74,37.74,0,0,0-10.3-5.28Q635.22,87,628,84.79a59.74,59.74,0,0,1-13.4-5.86,32.19,32.19,0,0,1-10.31-9.71q-4.1-6-4.1-15.92A35.66,35.66,0,0,1,604,36.55a36.31,36.31,0,0,1,10-12.06,43.73,43.73,0,0,1,14.49-7.29,59.62,59.62,0,0,1,16.92-2.42,66.83,66.83,0,0,1,19.43,2.84,45,45,0,0,1,16.92,9.55Z"/><path class="cls-1" d="M415.06,208.59c-2.3-15.13-12.46-27.43-25.82-31.79v-14a39.62,39.62,0,0,0-39.61-39.65h0A39.62,39.62,0,0,0,310,162.77v14c-13.37,4.36-23.53,16.66-25.83,31.79-2,13.06,1.85,27.13,11.08,40.69,10.85,15.93,28.73,30.75,53.13,44a4.06,4.06,0,0,0,1.23.31,2.31,2.31,0,0,0,1.22-.31c24.41-13.3,42.28-28.12,53.13-44C413.22,235.72,417.05,221.65,415.06,208.59Zm-87.8-45.83c0-6,2.32-14.13,6.55-18.36a22.34,22.34,0,0,1,31.63,0c4.23,4.23,6.55,12.39,6.55,18.37v13.12c-8.53,1.9-16.34,7.33-22.36,15.76-6-8.43-13.84-13.86-22.37-15.76Zm67.78,79c-8.84,13.8-23.69,26.84-44.13,38.75a2.52,2.52,0,0,1-1.28.35h0a2.47,2.47,0,0,1-1.28-.35c-20.45-11.91-35.3-25-44.13-38.75-7.38-11.51-10.22-23.46-8-33.65,2.41-11.18,10.62-19.09,20.92-20.14,12.45-1.28,24.23,7.49,31.66,23.5.24,0,.52,0,.85,0s.6,0,.84,0c7.43-16,19.2-24.78,31.66-23.5,10.3,1.05,18.51,9,20.93,20.14C405.26,218.33,402.41,230.28,395,241.79Z"/><path class="cls-1" d="M355.4,240.17A10.93,10.93,0,0,0,349.62,220h0a10.93,10.93,0,0,0-5.8,20.2l-3.3,19.68a2.55,2.55,0,0,0,2.52,3h13.17a2.56,2.56,0,0,0,2.52-3Z"/><path class="cls-1" d="M336.56,117a39.52,39.52,0,0,1,13.06-2.25h0A39.52,39.52,0,0,1,362.69,117V40.91h33.84V17.79H302.72V40.91h33.84Z"/></svg>