<?xml version="1.0"?>
<svg xmlns="http://www.w3.org/2000/svg" id="Capa_1" enable-background="new 0 0 512.347 512.347" height="512px" viewBox="0 0 512.347 512.347" width="512px" class=""><g><g><path d="m281.15 7.5h-16.729l-.785 1.803h-14.373l-.339-1.803h-17.728c-111.52 0-201.924 90.404-201.924 201.924 0 4.667 4.622 7.926 9.017 6.359l50.819-18.11c12.767-4.55 26.572-5.333 39.771-2.257l44.362 10.337c1.888.44 3.862.343 5.698-.279l.004-.001-.977-32.674 54.055-6.276 79.7 9.98 16.568 4.55 6.114 24.423-.02.255c1.55.362 3.163.385 4.722.022l44.362-10.337c13.199-3.076 27.005-2.292 39.771 2.257l50.819 18.11c4.396 1.567 9.017-1.693 9.017-6.359 0-111.519-90.404-201.924-201.924-201.924z" fill="#fe646f" data-original="#FE646F" class=""/><g><circle cx="257.173" cy="393.803" fill="#fee45a" r="111.043" data-original="#FEE45A" class="" style="fill:#526C87" data-old_color="#fee45a"/><path d="m213.509 393.803c0-49.582 32.498-91.568 77.354-105.834-10.626-3.38-21.943-5.209-33.689-5.209-61.327 0-111.043 49.716-111.043 111.043s49.716 111.043 111.043 111.043c11.746 0 23.063-1.83 33.689-5.209-44.856-14.266-77.354-56.252-77.354-105.834z" fill="#fedf30" data-original="#FEDF30" class="" style="fill:#415B75" data-old_color="#fedf30"/><circle cx="257.173" cy="393.803" fill="#fef0ae" r="81.043" data-original="#FEF0AE" class="" style="fill:#FFFFFF" data-old_color="#fef0ae"/><path d="m248.113 313.263c-40.444 4.514-71.983 38.912-71.983 80.54s31.541 76.026 71.985 80.54c-21.314-20.232-34.606-48.832-34.606-80.54s13.29-60.308 34.604-80.54z" fill="#fee97d" data-original="#FEE97D" class="active-path" data-old_color="#fee97d" style="fill:#FFFFFF"/><path d="m281.733 29.006-17.31-21.51h-15.5l-17.31 21.51c-39.969 49.659-58.88 113.018-52.67 176.467l4.994-28.63 67.163-5.772 60.621 9.976 22.632 24.698.05-.27c6.21-63.449-12.7-126.809-52.67-176.469z" fill="#f3eae6" data-original="#F3EAE6"/></g><g fill="#fd4755"><path d="m178.943 205.474-.995-32.667-16.919 6.029c-4.396 1.566-9.017-1.693-9.017-6.359 0-68.15 33.764-128.409 85.474-164.976h-13.04c-107.792-.001-195.174 87.381-195.174 195.173v6.513c0 4.783 4.736 8.123 9.241 6.517l52.462-18.696c11.547-4.115 24.034-4.824 35.973-2.042l48.167 11.224c.662.154 1.355.12 1.999-.098z" data-original="#FD4755"/><path d="m478.165 164.994-15.337 3.582c-2.531.59-5.175.46-7.636-.374l-55.758-18.895c-13.309-4.51-27.733-4.51-41.042 0l-24.05 8.15-.024 48.325.914.31c.644.218 1.337.252 1.999.098l48.167-11.224c11.939-2.782 24.426-2.073 35.973 2.042l52.686 18.775c4.396 1.567 9.018-1.693 9.018-6.359-.001-15.263-1.701-30.136-4.91-44.43z" data-original="#FD4755"/></g><path d="m297.856 169.243-48.167-11.224c-11.939-2.782-24.426-2.073-35.974 2.042l-35.767 12.746c-.398 10.843-.073 21.75.995 32.667l19.526-6.617 37.183-12.601c13.309-4.51 27.733-4.51 41.042 0l37.183 12.601 19.575 6.634c.295.102.562.227.865.293 0 0 1.613-32.473.024-48.325l-34.487 11.687c-.643.217-1.336.251-1.998.097z" fill="#efe2dd" data-original="#EFE2DD"/><g><path d="m297.745 323.29c1.732-3.763.085-8.217-3.677-9.949-11.652-5.363-24.065-8.082-36.895-8.082-48.823 0-88.543 39.72-88.543 88.543s39.72 88.543 88.543 88.543 88.543-39.72 88.543-88.543c0-22.163-8.265-43.388-23.273-59.765-2.798-3.054-7.543-3.262-10.596-.462-3.054 2.798-3.261 7.542-.462 10.596 12.466 13.604 19.332 31.23 19.332 49.631 0 40.552-32.992 73.543-73.543 73.543s-73.543-32.991-73.543-73.543 32.992-73.543 73.543-73.543c10.649 0 20.952 2.257 30.623 6.708 3.764 1.735 8.217.086 9.948-3.677z" data-original="#000000" class="" style="fill:#000000"/><path d="m282.521 374.961c4.142 0 7.5-3.358 7.5-7.5s-3.358-7.5-7.5-7.5h-17.848v-10.02c0-4.142-3.358-7.5-7.5-7.5s-7.5 3.358-7.5 7.5v10.02h-14.004c-6.638 0-12.039 5.4-12.039 12.038v19.539c0 6.638 5.4 12.039 12.039 12.039h39.352v13.615h-43.891c-4.142 0-7.5 3.358-7.5 7.5s3.358 7.5 7.5 7.5h18.542v10.019c0 4.142 3.358 7.5 7.5 7.5s7.5-3.358 7.5-7.5v-10.019h13.31c6.638 0 12.039-5.4 12.039-12.039v-19.539c0-6.638-5.4-12.038-12.039-12.038h-39.352v-13.615z" data-original="#000000" class="" style="fill:#000000"/><path d="m281.15 0h-49.954c-115.476 0-209.424 93.947-209.424 209.424 0 4.626 2.257 8.98 6.038 11.646s8.639 3.331 12.997 1.778l8.331-2.969 97.475 131.166c-5.15 13.271-7.982 27.689-7.982 42.757 0 26.852 9.235 53.162 26.005 74.083 2.59 3.232 7.312 3.752 10.543 1.161 3.232-2.591 3.752-7.311 1.161-10.543-14.856-18.534-22.709-40.908-22.709-64.701 0-57.094 46.449-103.543 103.543-103.543s103.543 46.449 103.543 103.543-46.449 103.543-103.543 103.543c-21.245 0-41.664-6.392-59.048-18.485-3.4-2.366-8.075-1.526-10.439 1.874-2.366 3.4-1.526 8.074 1.874 10.439 19.911 13.851 43.292 21.171 67.614 21.171 65.365 0 118.543-53.178 118.543-118.543 0-15.563-3.02-30.431-8.496-44.059l96.571-129.656 7.748 2.761c1.553.553 3.169.825 4.778.825 2.906 0 5.786-.887 8.219-2.604 3.781-2.666 6.038-7.02 6.038-11.646-.002-115.475-93.949-209.422-209.426-209.422zm-244.375 208.361c.573-106.72 87.569-193.361 194.421-193.361h2.063l-7.489 9.304c-10.566 13.128-19.857 27.422-27.614 42.484-1.896 3.683-.448 8.205 3.234 10.102 1.099.565 2.271.833 3.427.833 2.719 0 5.344-1.484 6.674-4.068 7.294-14.165 16.03-27.605 25.963-39.946l15.061-18.709h8.317l15.059 18.71c19.281 23.955 33.517 51.041 42.313 80.507 7.919 26.53 11.075 53.865 9.442 81.387l-46.377-15.716c-16.182-5.484-34.006-5.485-50.189 0l-45.333 15.362c-1.94-31.569 2.536-62.851 13.374-93.111 1.396-3.899-.633-8.193-4.532-9.589-3.899-1.397-8.193.632-9.59 4.532-11.681 32.616-16.424 66.359-14.148 100.415l-40.268-9.384c-14.629-3.409-29.842-2.546-43.991 2.497l-37.195 13.255c-.022.008-.044.016-.065.023zm117.112 127.326-89.974-121.072 27.713-9.876c11.435-4.076 23.728-4.773 35.552-2.018l44.362 10.337c3.078.719 6.277.597 9.292-.325l23.417 75.019c-21.174 10.61-38.747 27.374-50.362 47.935zm64.241-53.812-23.081-73.94 40.846-13.842c13.078-4.432 27.482-4.432 40.561 0l41.786 14.161-22.352 73.504c-12.139-4.206-25.163-6.498-38.715-6.498-13.674 0-26.812 2.335-39.045 6.615zm141.695 52.69c-11.673-20.149-29.108-36.557-50.032-46.966l22.684-74.598c2.729.671 5.58.699 8.333.057l44.361-10.337c11.822-2.755 24.117-2.057 35.552 2.018l28.291 10.082zm65.933-143.956c-14.15-5.042-29.362-5.907-43.991-2.497l-39.193 9.133c1.841-29.527-1.5-58.859-9.995-87.319-9.354-31.337-24.494-60.145-45-85.622l-7.49-9.304h1.063c106.853 0 193.849 86.641 194.421 193.361z" data-original="#000000" class="" style="fill:#000000"/></g></g></g> </svg>
