<?xml version="1.0"?>
<svg xmlns="http://www.w3.org/2000/svg" id="Outline" viewBox="0 0 512 512" width="512" height="512"><path d="M328,16a40.024,40.024,0,0,0-34.664,20.055,23.99,23.99,0,0,0-36.494,13.633,24,24,0,0,0-32,16,24,24,0,0,0-32,16,24,24,0,0,0-30.9,12.858A32.97,32.97,0,0,0,138.99,112.13L84.223,221.665A40.2,40.2,0,0,0,80,239.554V488a8,8,0,0,0,8,8h80a8,8,0,0,0,8-8V387.313l1.373-1.372a106.109,106.109,0,0,0,9.357-10.71c2.2,14.5,4.187,29.113,5.3,41.488C196.175,462.657,229.807,496,272,496a79.925,79.925,0,0,0,64-32.055V488a8,8,0,0,0,8,8h80a8,8,0,0,0,8-8V239.554a40.2,40.2,0,0,0-4.223-17.889L373.01,112.13a33.189,33.189,0,0,0-5.01-7.35V56A40.045,40.045,0,0,0,328,16ZM166.059,374.627l-3.716,3.716A8,8,0,0,0,160,384v96H96V239.554a24.127,24.127,0,0,1,2.533-10.733L153.3,119.286a17,17,0,0,1,6.7-7.117v92.136A32.012,32.012,0,0,0,144,232v56a8,8,0,0,0,16,0V232a16,16,0,0,1,32,0v80A87.989,87.989,0,0,1,166.059,374.627ZM272,480c-33.722,0-60.65-27.218-64.032-64.719-1.66-18.415-5.161-41.384-8.467-61.862A104.35,104.35,0,0,0,208,312V232a32.036,32.036,0,0,0-32-32V104a8,8,0,0,1,16,0v24a8,8,0,0,0,16,0V88a8,8,0,0,1,16,0v24a8,8,0,0,0,16,0V72a8,8,0,0,1,16,0V96a8,8,0,0,0,16,0V56a8,8,0,0,1,16,0V88a8,8,0,0,0,16,0V56a24,24,0,0,1,48,0V95c-.483-.129-.966-.255-1.457-.363A33.044,33.044,0,0,0,313.9,141.687l29.6,59.2A32.012,32.012,0,0,0,304,232v80a103.885,103.885,0,0,0,30.627,73.941L336,387.313V416A64.072,64.072,0,0,1,272,480ZM413.467,228.821A24.127,24.127,0,0,1,416,239.554V480H352V384a8,8,0,0,0-2.343-5.657l-3.716-3.716A87.989,87.989,0,0,1,320,312V232a16,16,0,0,1,32,0v56a8,8,0,0,0,16,0V216a7.994,7.994,0,0,0-.845-3.578L328.21,134.53a17.131,17.131,0,0,1,4.6-20.93,17.045,17.045,0,0,1,25.892,5.686Z"/></svg>
