<?xml version="1.0" encoding="iso-8859-1"?>
<!-- Generator: Adobe Illustrator 19.0.0, SVG Export Plug-In . SVG Version: 6.00 Build 0)  -->
<svg version="1.1" id="Capa_1" xmlns="http://www.w3.org/2000/svg" xmlns:xlink="http://www.w3.org/1999/xlink" x="0px" y="0px"
	 viewBox="0 0 512.008 512.008" style="enable-background:new 0 0 512.008 512.008;" xml:space="preserve">
<g transform="translate(0 -1)">
	<g>
		<g>
			<path d="M503.582,9.129c-6.681-6.585-16.195-9.423-25.391-7.575l-55.683,10.921c-15.293,3.002-29.187,10.919-39.567,22.546
				l-38.185,42.75h-89.002l4.988-8.038c3.039-4.908,3.785-10.897,2.042-16.4c-1.613-5.271-5.449-9.573-10.5-11.779l-31.45-13.525
				c-7.734-3.297-16.721-0.816-21.667,5.983L166.591,77.77H44.024c-5.671,0.085-10.997,2.74-14.477,7.218
				c-3.481,4.478-4.74,10.294-3.423,15.811l7.6,33.875c1.778,6.611,6.972,11.756,13.6,13.471l192.22,47.414l-98.651,110.444
				L20.707,299.67c-5.721-0.293-11.315,1.751-15.5,5.663c-3.313,3.113-5.194,7.454-5.2,12l0.258,20.992
				c0.163,6.972,4.507,13.16,11.008,15.683l62.436,27.21l-0.21,0.235c-3.012,3.371-4.692,7.725-4.725,12.245l-0.15,26.021
				c-0.032,3.586,0.717,7.136,2.197,10.402l-17.105,17.106c-2.176,2.151-3.034,5.303-2.247,8.26
				c0.786,2.957,3.096,5.267,6.053,6.053c2.957,0.786,6.109-0.071,8.26-2.247l17.369-17.371c4.323,1.881,8.991,2.839,13.706,2.813
				h0.192l26.108-0.121c4.604-0.018,9.038-1.745,12.442-4.846l2.727-2.463l28.94,64.625c2.525,6.55,8.757,10.925,15.775,11.075
				h21.242c4.585-0.023,8.956-1.943,12.075-5.304c3.886-4.228,5.873-9.861,5.5-15.592l-7.183-122.037
				c-0.082-0.475-0.206-0.941-0.371-1.393l113.314-102.351l47.915,183.077c1.817,6.654,7.15,11.766,13.875,13.3l31.375,7.146
				c1.411,0.322,2.853,0.485,4.3,0.487c4.285,0.005,8.444-1.45,11.792-4.125c4.361-3.454,6.902-8.712,6.9-14.275V340.71
				l43.808-32.657c6.777-4.954,9.234-13.931,5.925-21.646l-13.617-31.283c-2.224-5.015-6.518-8.815-11.767-10.413
				c-5.512-1.725-11.502-0.973-16.417,2.063l-7.933,4.931V163.47c-0.053-0.591-0.171-1.175-0.351-1.741l44.051-39.788
				c6.186-6.151,10.364-14.032,11.983-22.604l12.067-64.929C513.239,25.186,510.263,15.714,503.582,9.129z M443.774,271.801
				l16.942-10.531c0.7-0.421,1.549-0.516,2.325-0.263c0.509,0.132,0.943,0.466,1.2,0.925l13.617,31.283
				c0.233,0.542-0.267,0.996-0.483,1.158l-33.6,25.048V271.801z M212.849,44.203c0.246-0.437,0.762-0.644,1.242-0.5l31.458,13.529
				c0.47,0.256,0.814,0.695,0.95,1.213c0.246,0.762,0.151,1.592-0.258,2.279L235.667,77.77h-47.806L212.849,44.203z M51.474,131.591
				c-0.532-0.146-0.97-0.524-1.192-1.029l-7.55-33.696c-0.14-0.478-0.038-0.995,0.275-1.383c0.268-0.376,0.69-0.612,1.15-0.646
				h285.354l-15.248,17.071H170.691c-4.713,0-8.533,3.82-8.533,8.533s3.82,8.533,8.533,8.533h128.328l-46.612,52.184L51.474,131.591
				z M17.941,338.299c-0.367-0.154-0.517-0.317-0.617-0.287l-0.367-20.292c0.815-0.735,1.899-1.097,2.992-1l106.374,5.594
				l-40.647,45.507L17.941,338.299z M204.282,495.941l-20.833,0.083l-30.575-68.004c-0.42-0.87-0.987-1.662-1.676-2.34
				l47.149-42.588l6.468,109.94C204.8,494.025,204.62,495.008,204.282,495.941z M426.707,451.941
				c0.004,0.373-0.177,0.724-0.483,0.938c-0.472,0.361-1.084,0.484-1.658,0.333l-31.242-7.117c-0.565-0.112-1.042-0.489-1.283-1.012
				L341.89,253.44l50.684-45.781v134.67c0,4.713,3.82,8.533,8.533,8.533s8.533-3.82,8.533-8.533V197.249
				c-0.031-1.404-0.417-2.778-1.122-3.992l18.189-16.429V451.941z M494.741,31.295L482.674,96.22
				c-0.969,5.042-3.391,9.691-6.967,13.375L124.132,427.133c-0.291,0.262-0.667,0.41-1.058,0.417l-25.667,0.119l19.575-19.577
				c3.313-3.335,3.304-8.722-0.02-12.046c-3.324-3.324-8.711-3.333-12.046-0.021l-19.198,19.2l0.123-21.417
				c0.005-0.366,0.144-0.718,0.392-0.987L395.674,46.387c7.901-8.854,18.48-14.882,30.125-17.167l55.675-10.917
				c0.755-0.15,1.522-0.225,2.292-0.225c2.955-0.008,5.791,1.16,7.883,3.246C494.291,23.917,495.453,27.663,494.741,31.295z"/>
			<path d="M443.783,52.17h-25.609c-4.713,0-8.533,3.82-8.533,8.533s3.821,8.533,8.533,8.533h25.609v25.604
				c0,4.713,3.82,8.533,8.533,8.533s8.533-3.82,8.533-8.533V69.237C460.839,59.816,453.204,52.181,443.783,52.17z"/>
			<path d="M394.783,112.199c-2.945-0.789-6.086,0.053-8.242,2.208L258.524,242.42c-2.44,2.44-3.169,6.11-1.849,9.298
				c1.32,3.188,4.431,5.267,7.882,5.268l0,0c2.264,0.003,4.435-0.897,6.033-2.5l128.017-128.012
				c2.156-2.156,2.997-5.297,2.208-8.242C400.027,115.288,397.728,112.988,394.783,112.199z"/>
		</g>
	</g>
</g>
<g>
</g>
<g>
</g>
<g>
</g>
<g>
</g>
<g>
</g>
<g>
</g>
<g>
</g>
<g>
</g>
<g>
</g>
<g>
</g>
<g>
</g>
<g>
</g>
<g>
</g>
<g>
</g>
<g>
</g>
</svg>
