<svg id="Capa_1" enable-background="new 0 0 512 512" height="512" viewBox="0 0 512 512" width="512" xmlns="http://www.w3.org/2000/svg"><path d="m494.5 230.892h-57.805c-4.143 0-7.5 3.358-7.5 7.5s3.357 7.5 7.5 7.5h57.805c1.379 0 2.5 1.122 2.5 2.5v92.231c-12.24.846-19.638 3.693-26.272 6.261-7.316 2.831-14.226 5.506-28.357 5.506s-21.041-2.675-28.357-5.506c-7.893-3.055-16.839-6.518-33.772-6.518s-25.878 3.463-33.77 6.518c-4.977 1.926-9.771 3.778-16.773 4.766v-105.758h74.312c4.143 0 7.5-3.358 7.5-7.5s-3.357-7.5-7.5-7.5h-74.312v-177.349c0-2.82 2.294-5.114 5.114-5.114 2.819 0 5.113 2.294 5.113 5.114v14.283c0 12.407 10.094 22.5 22.5 22.5s22.5-10.093 22.5-22.5v-14.283c0-27.633-22.48-50.114-50.113-50.114s-50.114 22.481-50.114 50.114v65.596h-112.625v-65.596c0-2.82 2.294-5.114 5.113-5.114 2.82 0 5.114 2.294 5.114 5.114v14.283c0 12.407 10.094 22.5 22.5 22.5s22.5-10.093 22.5-22.5v-14.283c0-27.633-22.482-50.114-50.114-50.114s-50.113 22.481-50.113 50.114v86.752c0 4.142 3.357 7.5 7.5 7.5s7.5-3.358 7.5-7.5v-86.752c0-19.362 15.752-35.114 35.113-35.114 19.362 0 35.114 15.752 35.114 35.114v14.283c0 4.136-3.364 7.5-7.5 7.5s-7.5-3.364-7.5-7.5v-14.283c0-11.091-9.023-20.114-20.114-20.114s-20.113 9.023-20.113 20.114v290.317c-4.14-1.285-8.945-2.393-15-2.999v-167.88c0-4.142-3.357-7.5-7.5-7.5s-7.5 3.358-7.5 7.5v57.911h-109.574c-9.649 0-17.5 7.851-17.5 17.5v242.679c0 9.649 7.851 17.5 17.5 17.5h477c9.649 0 17.5-7.851 17.5-17.5v-242.679c0-9.649-7.851-17.5-17.5-17.5zm-194.802-177.349c0-19.362 15.752-35.114 35.114-35.114 19.361 0 35.113 15.752 35.113 35.114v14.283c0 4.135-3.364 7.5-7.5 7.5s-7.5-3.365-7.5-7.5v-14.283c0-11.091-9.023-20.114-20.113-20.114s-20.114 9.023-20.114 20.114v298.785c-6.232-.209-10.96-.981-15-2.048zm-15 177.349h-112.624v-15h112.624zm0 15v36.753h-112.624v-36.753zm0 51.754v15h-112.624v-15zm0-96.754h-112.624v-36.753h112.624zm0 126.754v17.339c-6.847-2.431-15.252-4.618-28.707-4.618-16.932 0-25.876 3.463-33.768 6.518-7.314 2.831-14.224 5.506-28.353 5.506-9.967 0-16.337-1.333-21.796-3.111v-21.634zm0-193.507v15h-112.624v-15zm209.802 359.432h-477c-1.379 0-2.5-1.122-2.5-2.5v-135.415c9.336.763 14.966 2.938 20.854 5.216 4.646 1.799 9.452 3.659 15.948 4.943.491.097.979.144 1.462.144 3.509 0 6.644-2.475 7.35-6.047.804-4.064-1.84-8.009-5.903-8.812-5.211-1.029-9.209-2.577-13.441-4.216-6.634-2.568-14.031-5.415-26.269-6.261v-92.231c0-1.378 1.121-2.5 2.5-2.5h109.574v94.577c-13.958.572-21.968 3.655-29.097 6.415-4.243 1.643-8.251 3.194-13.482 4.224-4.064.8-6.711 4.743-5.91 8.807.8 4.064 4.745 6.713 8.807 5.911 6.522-1.284 11.341-3.149 16.001-4.953 7.314-2.832 14.224-5.506 28.353-5.506 14.131 0 21.04 2.675 28.355 5.506 7.892 3.055 16.837 6.518 33.769 6.518s25.876-3.463 33.769-6.518c7.314-2.831 14.224-5.506 28.352-5.506 14.13 0 21.04 2.675 28.356 5.506 7.892 3.055 16.837 6.518 33.77 6.518 1.4 0 2.727-.032 4.021-.077.02 0 .04.003.061.003.17 0 .337-.014.504-.025 14.012-.563 22.041-3.653 29.184-6.419 7.315-2.831 14.226-5.506 28.356-5.506 14.132 0 21.041 2.675 28.357 5.506 7.893 3.055 16.839 6.518 33.771 6.518 16.933 0 25.879-3.463 33.772-6.518 5.888-2.279 11.52-4.453 20.857-5.216v135.414c-.001 1.378-1.122 2.5-2.501 2.5z"/></svg>